<?xml version="1.0" encoding="UTF-8" standalone="no"?>
<svg
   xmlns:svg="http://www.w3.org/2000/svg"
   xmlns="http://www.w3.org/2000/svg"
   version="1.1"
   width="659.75385"
   height="117.32865"
   id="svg19953">
  <defs
     id="defs19955" />
  <g
     transform="translate(155.59122,-290.84071)"
     id="layer1">
    <path
       d="m -155.59122,408.16936 659.75387,0 0,-117.32865 -659.75387,0 0,117.32865 z"
       id="path6433"
       style="fill:#b71423;fill-opacity:1;fill-rule:nonzero;stroke:none" />
    <path
       d="m -10.287691,298.17159 -28.07439,0 c 0,0 -11.73176,60.98082 -11.73176,66.69743 0,-5.71661 -12.726919,-66.69743 -12.726919,-66.69743 l -29.080609,0 c 0,0 -12.350961,60.98082 -12.350961,66.69743 0,-5.71661 -12.09665,-66.69743 -12.09665,-66.69743 l -30.44066,0 24.20436,102.76623 31.690122,0 c 0,0 12.350966,-52.28981 12.472596,-58.39342 0.508634,5.97092 12.483653,58.39342 12.483653,58.39342 l 32.187698,0 23.46352,-102.76623 m 56.67954,0 -29.68876,0 0,102.76623 29.68876,0 0,-102.76623 z m 107.465571,102.76623 0,-22.8996 -46.52897,0 0,-17.52577 44.16272,0 0,-22.16982 -44.16272,0 0,-17.01713 46.04246,0 0,-23.15391 -74.371171,0 0,102.76623 74.857681,0 m 112.83941,0 0,-102.76623 -27.44413,0 0,50.34373 -26.20572,-50.34373 -28.94793,0 0,102.76623 27.32251,0 0,-51.25043 27.20087,51.25043 28.0744,0 m 107.46557,0 0,-22.8996 -46.54003,0 0,-17.52577 44.16272,0 0,-22.16982 -44.16272,0 0,-17.01713 46.04245,0 0,-23.15391 -74.36011,0 0,102.76623 74.85769,0 m 115.08401,-70.72228 c 0,-9.73039 -1.86866,-16.86233 -5.61708,-22.05924 -4.62194,-6.35793 -12.60528,-9.98471 -24.45867,-9.98471 l -54.7777,0 0,102.76623 28.20709,0 0,-36.33418 15.59074,0 15.34749,36.33418 31.07092,0 -19.8478,-42.55942 c 3.88109,-1.03938 7.86172,-4.02484 10.61497,-9.2107 2.36625,-4.41185 3.87004,-10.64815 3.87004,-18.95216 m -26.62589,2.59846 c 0,2.07877 -0.49758,4.93154 -1.3711,6.61225 -0.99516,2.08982 -3.87005,3.96956 -6.74494,3.96956 l -21.53955,0 0,-21.35159 20.92035,0 c 3.74842,0 6.36898,1.16102 7.74009,4.01379 0.74084,1.43745 0.99516,4.29022 0.99516,6.75599"
       id="path6445"
       style="fill:#ffffff;fill-opacity:1;fill-rule:nonzero;stroke:none" />
  </g>
</svg>
